<?xml version="1.0" encoding="utf-8"?>
<!-- Generator: Adobe Illustrator 18.0.0, SVG Export Plug-In . SVG Version: 6.00 Build 0)  -->
<!DOCTYPE svg PUBLIC "-//W3C//DTD SVG 1.1//EN" "http://www.w3.org/Graphics/SVG/1.1/DTD/svg11.dtd">
<svg version="1.1"
	 id="svg3863" xmlns:svg="http://www.w3.org/2000/svg" xmlns:rdf="http://www.w3.org/1999/02/22-rdf-syntax-ns#" xmlns:cc="http://creativecommons.org/ns#" xmlns:dc="http://purl.org/dc/elements/1.1/"
	 xmlns="http://www.w3.org/2000/svg" xmlns:xlink="http://www.w3.org/1999/xlink" x="0px" y="0px" viewBox="0 0 267 205.2"
	 enable-background="new 0 0 267 205.2" xml:space="preserve">
<filter  id="filter7285" color-interpolation-filters="sRGB">
	<feGaussianBlur  id="feGaussianBlur7287" stdDeviation="0.53843668"></feGaussianBlur>
</filter>
<filter  width="1.1058065" height="1.2242635" id="filter7089" x="-0.052903239" y="-0.11213179" color-interpolation-filters="sRGB">
	<feGaussianBlur  id="feGaussianBlur7091" stdDeviation="5.686779"></feGaussianBlur>
</filter>
<filter  width="1.1302234" height="1.2760167" id="filter6351" x="-0.065111674" y="-0.13800836" color-interpolation-filters="sRGB">
	<feGaussianBlur  id="feGaussianBlur6353" stdDeviation="6.9991126"></feGaussianBlur>
</filter>
<filter  id="filter4871" color-interpolation-filters="sRGB">
	<feGaussianBlur  id="feGaussianBlur4873" stdDeviation="4.7462732"></feGaussianBlur>
</filter>
<filter  width="1.1968187" height="1.6185393" id="filter4649" x="-0.098409332" y="-0.30926967" color-interpolation-filters="sRGB">
	<feGaussianBlur  id="feGaussianBlur4651" stdDeviation="4.373436"></feGaussianBlur>
</filter>
<filter  width="1.246815" height="1.8239979" id="filter4461" x="-0.12340752" y="-0.41199893" color-interpolation-filters="sRGB">
	<feGaussianBlur  id="feGaussianBlur4463" stdDeviation="8.1429591"></feGaussianBlur>
</filter>
<filter  id="filter4105" color-interpolation-filters="sRGB">
	<feGaussianBlur  id="feGaussianBlur4107" stdDeviation="2.5330773"></feGaussianBlur>
</filter>
<filter  id="filter4093" color-interpolation-filters="sRGB">
	<feGaussianBlur  id="feGaussianBlur4095" stdDeviation="0.83103466"></feGaussianBlur>
</filter>
<filter  id="filter3882" color-interpolation-filters="sRGB">
	<feGaussianBlur  id="feGaussianBlur3884" stdDeviation="1.4532382"></feGaussianBlur>
</filter>
<filter  id="filter3854" color-interpolation-filters="sRGB">
	<feGaussianBlur  id="feGaussianBlur3856" stdDeviation="1.3367143"></feGaussianBlur>
</filter>
<filter  width="1.2715302" height="1.1082973" id="filter3490" x="-0.13576508" y="-0.054148685" color-interpolation-filters="sRGB">
	<feGaussianBlur  id="feGaussianBlur3492" stdDeviation="2.5664094"></feGaussianBlur>
</filter>
<filter  width="1.1469392" height="1.9683491" id="filter3457" x="-0.073469594" y="-0.48417458" color-interpolation-filters="sRGB">
	<feGaussianBlur  id="feGaussianBlur3459" stdDeviation="1.2280063"></feGaussianBlur>
</filter>
<filter  width="1.2439815" height="1.0911514" id="filter3368" x="-0.12199077" y="-0.045575637" color-interpolation-filters="sRGB">
	<feGaussianBlur  id="feGaussianBlur3370" stdDeviation="3.0083101"></feGaussianBlur>
</filter>
<g id="layer1" transform="translate(-338.268,-91.092)">
	<g id="g2604" transform="translate(0,-8.20313)">
		<g id="g2653" transform="translate(1.00125,0.999164)">
			<g>
				<defs>
					<path id="SVGID_1_" d="M446.8,108.8c3.3,1.1,10-0.4,12.5-1.2c10.3-3.1,19.9-7.6,29.1-8.4c185.3-17.9,130.1,230.9-36.9,201.9
						C295.7,300.3,304.2,61.4,446.8,108.8z"/>
				</defs>
				<clipPath id="SVGID_2_">
					<use xlink:href="#SVGID_1_"  overflow="visible"/>
				</clipPath>
				
					<linearGradient id="path3203_1_" gradientUnits="userSpaceOnUse" x1="528.0226" y1="196.8689" x2="528.0226" y2="-24.7191" gradientTransform="matrix(1 0 0 -0.926 -57.2668 280.5886)">
					<stop  offset="0" style="stop-color:#F18733"/>
					<stop  offset="0.1107" style="stop-color:#EF5C03"/>
					<stop  offset="0.1696" style="stop-color:#D93702"/>
					<stop  offset="0.3136" style="stop-color:#DE3301"/>
					<stop  offset="0.4399" style="stop-color:#EA4707"/>
					<stop  offset="0.5572" style="stop-color:#EC521B"/>
					<stop  offset="0.8458" style="stop-color:#E6571B"/>
					<stop  offset="0.8864" style="stop-color:#E24D15"/>
					<stop  offset="1" style="stop-color:#BF2001"/>
				</linearGradient>
				<path id="path3203" clip-path="url(#SVGID_2_)" fill="url(#path3203_1_)" d="M446.8,108.8c3.3,1.1,10-0.4,12.5-1.2
					c10.3-3.1,19.9-7.6,29.1-8.4c185.3-17.9,130.1,230.9-36.9,201.9C295.7,300.3,304.2,61.4,446.8,108.8z"/>
			</g>
			<g>
				<defs>
					<path id="SVGID_3_" d="M446.8,108.8c3.3,1.1,10-0.4,12.5-1.2c10.3-3.1,19.9-7.6,29.1-8.4c185.3-17.9,130.1,230.9-36.9,201.9
						C295.7,300.3,304.2,61.4,446.8,108.8z"/>
				</defs>
				<clipPath id="SVGID_4_">
					<use xlink:href="#SVGID_3_"  overflow="visible"/>
				</clipPath>
				<g id="path6589" clip-path="url(#SVGID_4_)" filter="url(#filter6351)">
					
						<linearGradient id="SVGID_5_" gradientUnits="userSpaceOnUse" x1="810.7491" y1="104.5882" x2="819.8596" y2="165.4463" gradientTransform="matrix(1 0 0 -0.926 -337.2668 280.5886)">
						<stop  offset="0" style="stop-color:#E94402"/>
						<stop  offset="5.694113e-02" style="stop-color:#E74801"/>
						<stop  offset="0.2005" style="stop-color:#D83000"/>
						<stop  offset="0.5565" style="stop-color:#D72F00"/>
						<stop  offset="0.7692" style="stop-color:#E03A00"/>
						<stop  offset="0.8295" style="stop-color:#E23700"/>
						<stop  offset="1" style="stop-color:#D52E01"/>
					</linearGradient>
					<path fill="url(#SVGID_5_)" d="M455.3,121.7c3.2,0.8,10,0.7,13.1-0.4c59.2-20.3,96.2,19.9,106.2,16c7-2.7-1.7-17.5-10.8-23.3
						c-3.8-2.5-5-5.3-3-4.3c31.6,15.4,45.1,49.3,42,72.9c-1.1,8.3-5.4,4-11.4,3.6c-4.2-0.3-10.2,15.9-19.3,18.5
						c-14.7,4.2-9.7-30-45.7-24.5c-25.5,3.9-30.9,9.7-30,20.5c2.9,35-50.6,21.2-35.7,0c5.2-7.5-6.2-16.9-28.9-16.2
						c-26.5,0.8-37.2,9.3-46.1,12.6C302.1,228.4,359.4,75.3,455.3,121.7c-78.2-29.2-94.3,42.4-69.8,45.1c10.9,1.2,24.1-6.4,41.1-7.6
						c20-1.4,32.8,21.4,61.2-4.6c7.5-6.8,26-0.1,31.8,1.7c79.1,23.8,28.4-60.5-50.8-34.7C466.8,122.2,459.4,122.9,455.3,121.7
						L455.3,121.7z"/>
				</g>
			</g>
			<g>
				<defs>
					<path id="SVGID_6_" d="M446.8,108.8c3.3,1.1,10-0.4,12.5-1.2c10.3-3.1,19.9-7.6,29.1-8.4c185.3-17.9,130.1,230.9-36.9,201.9
						C295.7,300.3,304.2,61.4,446.8,108.8z"/>
				</defs>
				<clipPath id="SVGID_7_">
					<use xlink:href="#SVGID_6_"  overflow="visible"/>
				</clipPath>
				<g id="path5891" clip-path="url(#SVGID_7_)" filter="url(#filter7089)">
					
						<linearGradient id="SVGID_8_" gradientUnits="userSpaceOnUse" x1="811.5422" y1="62.931" x2="811.5422" y2="184.6474" gradientTransform="matrix(1 0 0 -0.926 -337.2668 280.5886)">
						<stop  offset="0" style="stop-color:#E94402"/>
						<stop  offset="5.694113e-02" style="stop-color:#E34305"/>
						<stop  offset="0.2991" style="stop-color:#E64002"/>
						<stop  offset="0.8276" style="stop-color:#EA5207"/>
						<stop  offset="1" style="stop-color:#D52E01"/>
					</linearGradient>
					<path fill="url(#SVGID_8_)" d="M455.3,121.7c3.2,0.8,10,0.7,13.1-0.4c59.2-20.3,96.2,19.9,106.2,16c7-2.7-1.7-17.5-10.8-23.3
						c-3.8-2.5-5-5.3-3-4.3c31.6,15.4,45.1,49.3,42,72.9c-1.1,8.3-5.4,4-11.4,3.6c-4.2-0.3-10.2,15.9-19.3,18.5
						c-14.7,4.2-9.7-30-45.7-24.5c-25.5,3.9-30.9,9.7-30,20.5c2.9,35-50.6,21.2-35.7,0c5.2-7.5-6.2-16.9-28.9-16.2
						c-26.5,0.8-37.2,9.3-46.1,12.6C302.1,228.4,359.4,75.3,455.3,121.7c-78.2-29.2-94.3,42.4-69.8,45.1c10.9,1.2,24.1-6.4,41.1-7.6
						c20-1.4,32.8,21.4,61.2-4.6c7.5-6.8,26-0.1,31.8,1.7c79.1,23.8,28.4-60.5-50.8-34.7C466.8,122.2,459.4,122.9,455.3,121.7
						L455.3,121.7z"/>
				</g>
			</g>
			<g>
				<defs>
					<path id="SVGID_9_" d="M446.8,108.8c3.3,1.1,10-0.4,12.5-1.2c10.3-3.1,19.9-7.6,29.1-8.4c185.3-17.9,130.1,230.9-36.9,201.9
						C295.7,300.3,304.2,61.4,446.8,108.8z"/>
				</defs>
				<clipPath id="SVGID_10_">
					<use xlink:href="#SVGID_9_"  overflow="visible"/>
				</clipPath>
				<g id="path3805" opacity="0.507" clip-path="url(#SVGID_10_)" filter="url(#filter4871)" enable-background="new    ">
					
						<linearGradient id="SVGID_11_" gradientUnits="userSpaceOnUse" x1="682.5494" y1="123.7892" x2="940.535" y2="123.7892" gradientTransform="matrix(1 0 0 -0.926 -337.2668 280.5886)">
						<stop  offset="0" style="stop-color:#E94402"/>
						<stop  offset="5.694113e-02" style="stop-color:#E74801"/>
						<stop  offset="0.1117" style="stop-color:#EB4E01"/>
						<stop  offset="0.1967" style="stop-color:#EA4D0B"/>
						<stop  offset="0.4597" style="stop-color:#E94404"/>
						<stop  offset="0.7692" style="stop-color:#E03A00"/>
						<stop  offset="0.8295" style="stop-color:#E23700"/>
						<stop  offset="1" style="stop-color:#D52E01"/>
					</linearGradient>
					<path fill="url(#SVGID_11_)" d="M455.3,121.7c3.2,0.8,10,0.7,13.1-0.4c59.2-20.3,96.2,19.9,106.2,16c7-2.7-1.7-17.5-10.8-23.3
						c-3.8-2.5-5-5.3-3-4.3c31.6,15.4,45.1,49.3,42,72.9c-1.1,8.3-5.4,4-11.4,3.6c-4.2-0.3-10.2,15.9-19.3,18.5
						c-14.7,4.2-9.7-30-45.7-24.5c-25.5,3.9-30.9,9.7-30,20.5c2.9,35-50.6,21.2-35.7,0c5.2-7.5-6.2-16.9-28.9-16.2
						c-26.5,0.8-37.2,9.3-46.1,12.6C302.1,228.4,359.4,75.3,455.3,121.7c-78.2-29.2-94.3,42.4-69.8,45.1c10.9,1.2,24.1-6.4,41.1-7.6
						c20-1.4,32.8,21.4,61.2-4.6c7.5-6.8,26-0.1,31.8,1.7c79.1,23.8,28.4-60.5-50.8-34.7C466.8,122.2,459.4,122.9,455.3,121.7
						L455.3,121.7z"/>
				</g>
			</g>
			<g>
				<defs>
					<path id="SVGID_12_" d="M446.8,108.8c3.3,1.1,10-0.4,12.5-1.2c10.3-3.1,19.9-7.6,29.1-8.4c185.3-17.9,130.1,230.9-36.9,201.9
						C295.7,300.3,304.2,61.4,446.8,108.8z"/>
				</defs>
				<clipPath id="SVGID_13_">
					<use xlink:href="#SVGID_12_"  overflow="visible"/>
				</clipPath>
				<g id="path3816" opacity="0.9671" clip-path="url(#SVGID_13_)" filter="url(#filter4461)" enable-background="new    ">
					
						<linearGradient id="SVGID_14_" gradientUnits="userSpaceOnUse" x1="716.4425" y1="139.9975" x2="883.333" y2="139.9975" gradientTransform="matrix(1.0002 0 0 -0.8925 -337.4062 270.4904)">
						<stop  offset="0" style="stop-color:#F47023;stop-opacity:0"/>
						<stop  offset="0.1505" style="stop-color:#FFD0AB"/>
						<stop  offset="0.7606" style="stop-color:#FCAE74;stop-opacity:0.7829"/>
						<stop  offset="0.9483" style="stop-color:#F77A2F;stop-opacity:0.8629"/>
						<stop  offset="1" style="stop-color:#EC520C;stop-opacity:0"/>
					</linearGradient>
					<path fill="url(#SVGID_14_)" d="M422.9,125.4c-18.8,0.6-36.8,1.1-38,24.7c0.1,10.7,14,13.2,23.3,10.7
						c8.6-3.2,21.8-4.6,31.3-0.5c11,3.9,17.4,7.1,29,4.9c11.6-2.8,19.1-17.7,33.2-14.8c47.7,10.5,22.8-42.4-31.9-18.2
						c-18,2.6-25.5-2.9-36.3-5.9C430.1,125.5,426.5,125.2,422.9,125.4L422.9,125.4z"/>
				</g>
			</g>
			<g>
				<defs>
					<path id="SVGID_15_" d="M446.8,108.8c3.3,1.1,10-0.4,12.5-1.2c10.3-3.1,19.9-7.6,29.1-8.4c185.3-17.9,130.1,230.9-36.9,201.9
						C295.7,300.3,304.2,61.4,446.8,108.8z"/>
				</defs>
				<clipPath id="SVGID_16_">
					<use xlink:href="#SVGID_15_"  overflow="visible"/>
				</clipPath>
				<g id="path3819" opacity="0.3239" clip-path="url(#SVGID_16_)" filter="url(#filter4649)" enable-background="new    ">
					
						<linearGradient id="SVGID_17_" gradientUnits="userSpaceOnUse" x1="786.1409" y1="165.825" x2="788.8" y2="128.3556" gradientTransform="matrix(1 0 0 -0.926 -337.2668 280.5886)">
						<stop  offset="0" style="stop-color:#FFFFFF"/>
						<stop  offset="1" style="stop-color:#FEE5C2;stop-opacity:0"/>
					</linearGradient>
					<path fill="url(#SVGID_17_)" d="M443.6,130.5c-30.8-14-57,13-43.2,21.8c5.1,3.3,31.5-14.6,47.8,2.2
						c12.1,12.5,26.9-13.1,47.5-12.3c11.7,0.5,9.9-13.5-5.7-13.5C480.6,128.8,462.6,139.2,443.6,130.5L443.6,130.5z"/>
				</g>
			</g>
			<g>
				<defs>
					<path id="SVGID_18_" d="M446.8,108.8c3.3,1.1,10-0.4,12.5-1.2c10.3-3.1,19.9-7.6,29.1-8.4c185.3-17.9,130.1,230.9-36.9,201.9
						C295.7,300.3,304.2,61.4,446.8,108.8z"/>
				</defs>
				<clipPath id="SVGID_19_">
					<use xlink:href="#SVGID_18_"  overflow="visible"/>
				</clipPath>
				<g id="path3858" clip-path="url(#SVGID_19_)" filter="url(#filter3490)">
					
						<radialGradient id="SVGID_20_" cx="626.4556" cy="392.5761" r="22.684" gradientTransform="matrix(11.9136 3.4421 3.3472 -10.1136 -8451.9619 1956.5021)" gradientUnits="userSpaceOnUse">
						<stop  offset="0" style="stop-color:#FDEEEB"/>
						<stop  offset="0.8987" style="stop-color:#F4F2F2;stop-opacity:0"/>
						<stop  offset="0.9473" style="stop-color:#F4F3F3;stop-opacity:0.2343"/>
						<stop  offset="1" style="stop-color:#F3D7C9"/>
					</radialGradient>
					<path fill="url(#SVGID_20_)" d="M603,176.4c1,26.5-3,66.6-53.3,105.3c4.7-29.3,14.1-53.9,23.4-85
						C576.1,186.6,597.9,124.5,603,176.4L603,176.4z"/>
				</g>
			</g>
			<g>
				<defs>
					<path id="SVGID_21_" d="M446.8,108.8c3.3,1.1,10-0.4,12.5-1.2c10.3-3.1,19.9-7.6,29.1-8.4c185.3-17.9,130.1,230.9-36.9,201.9
						C295.7,300.3,304.2,61.4,446.8,108.8z"/>
				</defs>
				<clipPath id="SVGID_22_">
					<use xlink:href="#SVGID_21_"  overflow="visible"/>
				</clipPath>
				<g id="path3856" clip-path="url(#SVGID_22_)" filter="url(#filter3368)">
					
						<radialGradient id="SVGID_23_" cx="659.7291" cy="389.1253" r="29.6547" gradientTransform="matrix(-2.2838 -8.2055 -9.2607 3.1685 5728.5117 4315.0913)" gradientUnits="userSpaceOnUse">
						<stop  offset="0" style="stop-color:#FDEEEB;stop-opacity:0"/>
						<stop  offset="0.9462" style="stop-color:#FDB585;stop-opacity:7.386360e-02"/>
						<stop  offset="1" style="stop-color:#FDEEEB;stop-opacity:0.92"/>
					</radialGradient>
					<path fill="url(#SVGID_23_)" d="M356.8,142.4c-49.2,58.4-5.2,126.9,37.5,146.7L356.8,142.4z"/>
				</g>
			</g>
			<g>
				<defs>
					<path id="SVGID_24_" d="M446.8,108.8c3.3,1.1,10-0.4,12.5-1.2c10.3-3.1,19.9-7.6,29.1-8.4c185.3-17.9,130.1,230.9-36.9,201.9
						C295.7,300.3,304.2,61.4,446.8,108.8z"/>
				</defs>
				<clipPath id="SVGID_25_">
					<use xlink:href="#SVGID_24_"  overflow="visible"/>
				</clipPath>
				<g id="path3744" opacity="0.7512" clip-path="url(#SVGID_25_)" filter="url(#filter3854)" enable-background="new    ">
					
						<radialGradient id="SVGID_26_" cx="44.8738" cy="796.9683" r="53.8632" gradientTransform="matrix(-1.5252 0.8841 0.5801 0.858 34.4444 -612.7327)" gradientUnits="userSpaceOnUse">
						<stop  offset="0" style="stop-color:#FCB33E"/>
						<stop  offset="0.7614" style="stop-color:#F46018"/>
						<stop  offset="1" style="stop-color:#EE5208"/>
					</radialGradient>
					<path fill="url(#SVGID_26_)" d="M446.8,108.8c-43.9-18.5-103.3,11-101.5,48.1c15.1-25.9,50.4-58.3,106.6-36
						C454.5,119.1,451.2,111.3,446.8,108.8z"/>
				</g>
			</g>
			<g>
				<defs>
					<path id="SVGID_27_" d="M446.8,108.8c3.3,1.1,10-0.4,12.5-1.2c10.3-3.1,19.9-7.6,29.1-8.4c185.3-17.9,130.1,230.9-36.9,201.9
						C295.7,300.3,304.2,61.4,446.8,108.8z"/>
				</defs>
				<clipPath id="SVGID_28_">
					<use xlink:href="#SVGID_27_"  overflow="visible"/>
				</clipPath>
				<g id="path3494" clip-path="url(#SVGID_28_)" filter="url(#filter4105)">
					
						<linearGradient id="SVGID_29_" gradientUnits="userSpaceOnUse" x1="603.2143" y1="164.8922" x2="923.4448" y2="25.6606" gradientTransform="matrix(1 0 0 -0.926 -337.2668 280.5886)">
						<stop  offset="0" style="stop-color:#FFFFFF"/>
						<stop  offset="5.433260e-02" style="stop-color:#E45219;stop-opacity:0"/>
						<stop  offset="0.2494" style="stop-color:#ED5E24;stop-opacity:0"/>
						<stop  offset="0.5092" style="stop-color:#EE5C21;stop-opacity:0"/>
						<stop  offset="0.7546" style="stop-color:#EB4F14;stop-opacity:0"/>
						<stop  offset="0.94" style="stop-color:#EA6E3A;stop-opacity:0"/>
						<stop  offset="1" style="stop-color:#F5DDD1"/>
					</linearGradient>
					<path fill="url(#SVGID_29_)" d="M342.5,154.6c-19.1,58.7,14.9,146.1,109,146.6c109.4,19,170.7-81.1,147.9-147.6
						c2.9,12.6,11.4,39.5-7.9,32.9c-4.1-1.4-11.4,18.7-21.8,18.9c-13.8,0.6-5.4-33.8-51.8-23.2c-42.3,9.7-2.3,35.9-40.9,40.1
						c-10.2-1.8-14.5-4.5-16.4-7.2c-5-7-0.8-11.8,1.2-15.6c2.4-4.3-3.1-13.2-21.9-14.5c-40.6-4.4-54.9,23.2-83.3,15
						c-1.3-0.5-2.5-1.2-3.6-2c-16.8-12.8-2.3-42.6,7.3-54.6c-10.2,6.1-18.4,27.8-19.3,31.9C338.6,175.1,343.7,155.4,342.5,154.6z"/>
				</g>
			</g>
			
				<radialGradient id="path3825_1_" cx="720.2313" cy="-60.7139" r="80.0809" gradientTransform="matrix(2.2417 2.715570e-02 1.214170e-02 -1.0022 -1141.6719 222.4819)" gradientUnits="userSpaceOnUse">
				<stop  offset="0" style="stop-color:#A21907"/>
				<stop  offset="0.7246" style="stop-color:#9C1901;stop-opacity:0.2039"/>
				<stop  offset="1" style="stop-color:#9B1A00;stop-opacity:0"/>
			</radialGradient>
			<path id="path3825" fill="url(#path3825_1_)" d="M356.9,253.3c77.5-45.8,153.9-31.4,232.3-13.9c-8.7,11.5-17.5,25.3-31.2,36.2
				c-18.6,17.1-59.2,33.5-106.2,25.3C404.6,301.9,369.8,274.3,356.9,253.3L356.9,253.3z"/>
			<g>
				<defs>
					<path id="SVGID_30_" d="M446.8,108.8c3.3,1.1,10-0.4,12.5-1.2c10.3-3.1,19.9-7.6,29.1-8.4c185.3-17.9,130.1,230.9-36.9,201.9
						C295.7,300.3,304.2,61.4,446.8,108.8z"/>
				</defs>
				<clipPath id="SVGID_31_">
					<use xlink:href="#SVGID_30_"  overflow="visible"/>
				</clipPath>
				<g id="path3748" opacity="0.7512" clip-path="url(#SVGID_31_)" filter="url(#filter3882)" enable-background="new    ">
					
						<radialGradient id="SVGID_32_" cx="276.9762" cy="430.6228" r="71.166" gradientTransform="matrix(1.4096 0.95 0.9076 -1.1547 -301.3802 348.3512)" gradientUnits="userSpaceOnUse">
						<stop  offset="0" style="stop-color:#FCB33E"/>
						<stop  offset="1" style="stop-color:#DC3501"/>
					</radialGradient>
					<path fill="url(#SVGID_32_)" d="M470.1,120.8c37.2-15.9,101.5,6.4,121.6,40.2c17.7-11.3-27.9-90.2-132.7-52.4
						C459.7,108.7,437.9,126.4,470.1,120.8z"/>
				</g>
			</g>
			<g>
				<defs>
					<path id="SVGID_33_" d="M446.8,108.8c3.3,1.1,10-0.4,12.5-1.2c10.3-3.1,19.9-7.6,29.1-8.4c185.3-17.9,130.1,230.9-36.9,201.9
						C295.7,300.3,304.2,61.4,446.8,108.8z"/>
				</defs>
				<clipPath id="SVGID_34_">
					<use xlink:href="#SVGID_33_"  overflow="visible"/>
				</clipPath>
				<g id="path3852" clip-path="url(#SVGID_34_)" filter="url(#filter7285)">
					
						<radialGradient id="SVGID_35_" cx="787.8536" cy="100.6863" r="19.8668" fx="790.9814" fy="119.4571" gradientTransform="matrix(1.1869 0 0 -0.7466 -458.6647 186.1408)" gradientUnits="userSpaceOnUse">
						<stop  offset="0" style="stop-color:#FFF1DD"/>
						<stop  offset="1" style="stop-color:#F5A550;stop-opacity:0"/>
					</radialGradient>
					<path fill="url(#SVGID_35_)" d="M464.1,121.3c3,2.7,39.7-16.8,35.5-19.6C492,96.7,447.2,105.9,464.1,121.3z"/>
				</g>
			</g>
			<g>
				<defs>
					<path id="SVGID_36_" d="M446.8,108.8c3.3,1.1,10-0.4,12.5-1.2c10.3-3.1,19.9-7.6,29.1-8.4c185.3-17.9,130.1,230.9-36.9,201.9
						C295.7,300.3,304.2,61.4,446.8,108.8z"/>
				</defs>
				<clipPath id="SVGID_37_">
					<use xlink:href="#SVGID_36_"  overflow="visible"/>
				</clipPath>
				<g id="path3854" opacity="0.8732" clip-path="url(#SVGID_37_)" filter="url(#filter4093)" enable-background="new    ">
					
						<radialGradient id="SVGID_38_" cx="822.3649" cy="39.479" r="31.6633" fx="821.0436" fy="30.6454" gradientTransform="matrix(1.6628 0.1316 5.888900e-02 -0.638 -837.1899 38.2877)" gradientUnits="userSpaceOnUse">
						<stop  offset="0" style="stop-color:#FCD2B1"/>
						<stop  offset="0.46" style="stop-color:#F9A464;stop-opacity:0.5057"/>
						<stop  offset="1" style="stop-color:#E33E02;stop-opacity:0"/>
					</radialGradient>
					<path fill="url(#SVGID_38_)" d="M503.5,115c21.8,2.2,35.9,1.2,62.1,19.6C574.8,109.2,521.4,88.3,503.5,115z"/>
				</g>
			</g>
			<g id="path2609" opacity="0.4733" filter="url(#filter3457)" enable-background="new    ">
				<path opacity="0.5942" fill="#3C5A3C" d="M469.9,121c-2.6,1-8.8,1.4-13.9,0.9s-7-1.8-4.4-2.8c2.6-1,8.8-1.4,13.9-0.9
					S472.5,120,469.9,121z"/>
			</g>
			<g>
				<defs>
					<path id="SVGID_39_" d="M446.8,108.8c3.3,1.1,10-0.4,12.5-1.2c10.3-3.1,19.9-7.6,29.1-8.4c185.3-17.9,130.1,230.9-36.9,201.9
						C295.7,300.3,304.2,61.4,446.8,108.8z"/>
				</defs>
				<clipPath id="SVGID_40_">
					<use xlink:href="#SVGID_39_"  overflow="visible"/>
				</clipPath>
				
					<linearGradient id="path4176_1_" gradientUnits="userSpaceOnUse" x1="528.0226" y1="196.8689" x2="528.0226" y2="-24.7191" gradientTransform="matrix(1 0 0 -0.926 -57.2668 280.5886)">
					<stop  offset="0" style="stop-color:#F18733"/>
					<stop  offset="0.1107" style="stop-color:#EF5C03"/>
					<stop  offset="0.1696" style="stop-color:#D93702"/>
					<stop  offset="0.3136" style="stop-color:#DE3301"/>
					<stop  offset="0.4399" style="stop-color:#EA4707"/>
					<stop  offset="0.5572" style="stop-color:#EC521B"/>
					<stop  offset="0.8458" style="stop-color:#E6571B"/>
					<stop  offset="0.8864" style="stop-color:#E24D15"/>
					<stop  offset="1" style="stop-color:#BF2001"/>
				</linearGradient>
				<path id="path4176" clip-path="url(#SVGID_40_)" fill="url(#path4176_1_)" d="M446.8,108.8c3.3,1.1,10-0.4,12.5-1.2
					c10.3-3.1,19.9-7.6,29.1-8.4c185.3-17.9,130.1,230.9-36.9,201.9C295.7,300.3,304.2,61.4,446.8,108.8z"/>
			</g>
			<g>
				<defs>
					<path id="SVGID_41_" d="M446.8,108.8c3.3,1.1,10-0.4,12.5-1.2c10.3-3.1,19.9-7.6,29.1-8.4c185.3-17.9,130.1,230.9-36.9,201.9
						C295.7,300.3,304.2,61.4,446.8,108.8z"/>
				</defs>
				<clipPath id="SVGID_42_">
					<use xlink:href="#SVGID_41_"  overflow="visible"/>
				</clipPath>
				<g id="path4178" clip-path="url(#SVGID_42_)" filter="url(#filter6351)">
					
						<linearGradient id="SVGID_43_" gradientUnits="userSpaceOnUse" x1="810.7491" y1="104.5882" x2="819.8596" y2="165.4463" gradientTransform="matrix(1 0 0 -0.926 -337.2668 280.5886)">
						<stop  offset="0" style="stop-color:#E94402"/>
						<stop  offset="5.694113e-02" style="stop-color:#E74801"/>
						<stop  offset="0.2005" style="stop-color:#D83000"/>
						<stop  offset="0.5565" style="stop-color:#D72F00"/>
						<stop  offset="0.7692" style="stop-color:#E03A00"/>
						<stop  offset="0.8295" style="stop-color:#E23700"/>
						<stop  offset="1" style="stop-color:#D52E01"/>
					</linearGradient>
					<path fill="url(#SVGID_43_)" d="M455.3,121.7c3.2,0.8,10,0.7,13.1-0.4c59.2-20.3,96.2,19.9,106.2,16c7-2.7-1.7-17.5-10.8-23.3
						c-3.8-2.5-5-5.3-3-4.3c31.6,15.4,45.1,49.3,42,72.9c-1.1,8.3-5.4,4-11.4,3.6c-4.2-0.3-10.2,15.9-19.3,18.5
						c-14.7,4.2-9.7-30-45.7-24.5c-25.5,3.9-30.9,9.7-30,20.5c2.9,35-50.6,21.2-35.7,0c5.2-7.5-6.2-16.9-28.9-16.2
						c-26.5,0.8-37.2,9.3-46.1,12.6C302.1,228.4,359.4,75.3,455.3,121.7c-78.2-29.2-94.3,42.4-69.8,45.1c10.9,1.2,24.1-6.4,41.1-7.6
						c20-1.4,32.8,21.4,61.2-4.6c7.5-6.8,26-0.1,31.8,1.7c79.1,23.8,28.4-60.5-50.8-34.7C466.8,122.2,459.4,122.9,455.3,121.7
						L455.3,121.7z"/>
				</g>
			</g>
			<g>
				<defs>
					<path id="SVGID_44_" d="M446.8,108.8c3.3,1.1,10-0.4,12.5-1.2c10.3-3.1,19.9-7.6,29.1-8.4c185.3-17.9,130.1,230.9-36.9,201.9
						C295.7,300.3,304.2,61.4,446.8,108.8z"/>
				</defs>
				<clipPath id="SVGID_45_">
					<use xlink:href="#SVGID_44_"  overflow="visible"/>
				</clipPath>
				<g id="path4180" clip-path="url(#SVGID_45_)" filter="url(#filter7089)">
					
						<linearGradient id="SVGID_46_" gradientUnits="userSpaceOnUse" x1="811.5422" y1="62.931" x2="811.5422" y2="184.6474" gradientTransform="matrix(1 0 0 -0.926 -337.2668 280.5886)">
						<stop  offset="0" style="stop-color:#E94402"/>
						<stop  offset="5.694113e-02" style="stop-color:#E34305"/>
						<stop  offset="0.2991" style="stop-color:#E64002"/>
						<stop  offset="0.8276" style="stop-color:#EA5207"/>
						<stop  offset="1" style="stop-color:#D52E01"/>
					</linearGradient>
					<path fill="url(#SVGID_46_)" d="M455.3,121.7c3.2,0.8,10,0.7,13.1-0.4c59.2-20.3,96.2,19.9,106.2,16c7-2.7-1.7-17.5-10.8-23.3
						c-3.8-2.5-5-5.3-3-4.3c31.6,15.4,45.1,49.3,42,72.9c-1.1,8.3-5.4,4-11.4,3.6c-4.2-0.3-10.2,15.9-19.3,18.5
						c-14.7,4.2-9.7-30-45.7-24.5c-25.5,3.9-30.9,9.7-30,20.5c2.9,35-50.6,21.2-35.7,0c5.2-7.5-6.2-16.9-28.9-16.2
						c-26.5,0.8-37.2,9.3-46.1,12.6C302.1,228.4,359.4,75.3,455.3,121.7c-78.2-29.2-94.3,42.4-69.8,45.1c10.9,1.2,24.1-6.4,41.1-7.6
						c20-1.4,32.8,21.4,61.2-4.6c7.5-6.8,26-0.1,31.8,1.7c79.1,23.8,28.4-60.5-50.8-34.7C466.8,122.2,459.4,122.9,455.3,121.7
						L455.3,121.7z"/>
				</g>
			</g>
			<g>
				<defs>
					<path id="SVGID_47_" d="M446.8,108.8c3.3,1.1,10-0.4,12.5-1.2c10.3-3.1,19.9-7.6,29.1-8.4c185.3-17.9,130.1,230.9-36.9,201.9
						C295.7,300.3,304.2,61.4,446.8,108.8z"/>
				</defs>
				<clipPath id="SVGID_48_">
					<use xlink:href="#SVGID_47_"  overflow="visible"/>
				</clipPath>
				<g id="path4182" opacity="0.507" clip-path="url(#SVGID_48_)" filter="url(#filter4871)" enable-background="new    ">
					
						<linearGradient id="SVGID_49_" gradientUnits="userSpaceOnUse" x1="682.5494" y1="123.7892" x2="940.535" y2="123.7892" gradientTransform="matrix(1 0 0 -0.926 -337.2668 280.5886)">
						<stop  offset="0" style="stop-color:#E94402"/>
						<stop  offset="5.694113e-02" style="stop-color:#E74801"/>
						<stop  offset="0.1117" style="stop-color:#EB4E01"/>
						<stop  offset="0.1967" style="stop-color:#EA4D0B"/>
						<stop  offset="0.4597" style="stop-color:#E94404"/>
						<stop  offset="0.7692" style="stop-color:#E03A00"/>
						<stop  offset="0.8295" style="stop-color:#E23700"/>
						<stop  offset="1" style="stop-color:#D52E01"/>
					</linearGradient>
					<path fill="url(#SVGID_49_)" d="M455.3,121.7c3.2,0.8,10,0.7,13.1-0.4c59.2-20.3,96.2,19.9,106.2,16c7-2.7-1.7-17.5-10.8-23.3
						c-3.8-2.5-5-5.3-3-4.3c31.6,15.4,45.1,49.3,42,72.9c-1.1,8.3-5.4,4-11.4,3.6c-4.2-0.3-10.2,15.9-19.3,18.5
						c-14.7,4.2-9.7-30-45.7-24.5c-25.5,3.9-30.9,9.7-30,20.5c2.9,35-50.6,21.2-35.7,0c5.2-7.5-6.2-16.9-28.9-16.2
						c-26.5,0.8-37.2,9.3-46.1,12.6C302.1,228.4,359.4,75.3,455.3,121.7c-78.2-29.2-94.3,42.4-69.8,45.1c10.9,1.2,24.1-6.4,41.1-7.6
						c20-1.4,32.8,21.4,61.2-4.6c7.5-6.8,26-0.1,31.8,1.7c79.1,23.8,28.4-60.5-50.8-34.7C466.8,122.2,459.4,122.9,455.3,121.7
						L455.3,121.7z"/>
				</g>
			</g>
			<g>
				<defs>
					<path id="SVGID_50_" d="M446.8,108.8c3.3,1.1,10-0.4,12.5-1.2c10.3-3.1,19.9-7.6,29.1-8.4c185.3-17.9,130.1,230.9-36.9,201.9
						C295.7,300.3,304.2,61.4,446.8,108.8z"/>
				</defs>
				<clipPath id="SVGID_51_">
					<use xlink:href="#SVGID_50_"  overflow="visible"/>
				</clipPath>
				<g id="path4184" opacity="0.9671" clip-path="url(#SVGID_51_)" filter="url(#filter4461)" enable-background="new    ">
					
						<linearGradient id="SVGID_52_" gradientUnits="userSpaceOnUse" x1="716.4425" y1="139.9975" x2="883.333" y2="139.9975" gradientTransform="matrix(1.0002 0 0 -0.8925 -337.4062 270.4904)">
						<stop  offset="0" style="stop-color:#F47023;stop-opacity:0"/>
						<stop  offset="0.1505" style="stop-color:#FFD0AB"/>
						<stop  offset="0.7606" style="stop-color:#FCAE74;stop-opacity:0.7829"/>
						<stop  offset="0.9483" style="stop-color:#F77A2F;stop-opacity:0.8629"/>
						<stop  offset="1" style="stop-color:#EC520C;stop-opacity:0"/>
					</linearGradient>
					<path fill="url(#SVGID_52_)" d="M422.9,125.4c-18.8,0.6-36.8,1.1-38,24.7c0.1,10.7,14,13.2,23.3,10.7
						c8.6-3.2,21.8-4.6,31.3-0.5c11,3.9,17.4,7.1,29,4.9c11.6-2.8,19.1-17.7,33.2-14.8c47.7,10.5,22.8-42.4-31.9-18.2
						c-18,2.6-25.5-2.9-36.3-5.9C430.1,125.5,426.5,125.2,422.9,125.4L422.9,125.4z"/>
				</g>
			</g>
			<g>
				<defs>
					<path id="SVGID_53_" d="M446.8,108.8c3.3,1.1,10-0.4,12.5-1.2c10.3-3.1,19.9-7.6,29.1-8.4c185.3-17.9,130.1,230.9-36.9,201.9
						C295.7,300.3,304.2,61.4,446.8,108.8z"/>
				</defs>
				<clipPath id="SVGID_54_">
					<use xlink:href="#SVGID_53_"  overflow="visible"/>
				</clipPath>
				<g id="path4186" opacity="0.3239" clip-path="url(#SVGID_54_)" filter="url(#filter4649)" enable-background="new    ">
					
						<linearGradient id="SVGID_55_" gradientUnits="userSpaceOnUse" x1="786.1409" y1="165.825" x2="788.8" y2="128.3556" gradientTransform="matrix(1 0 0 -0.926 -337.2668 280.5886)">
						<stop  offset="0" style="stop-color:#FFFFFF"/>
						<stop  offset="1" style="stop-color:#FEE5C2;stop-opacity:0"/>
					</linearGradient>
					<path fill="url(#SVGID_55_)" d="M443.6,130.5c-30.8-14-57,13-43.2,21.8c5.1,3.3,31.5-14.6,47.8,2.2
						c12.1,12.5,26.9-13.1,47.5-12.3c11.7,0.5,9.9-13.5-5.7-13.5C480.6,128.8,462.6,139.2,443.6,130.5L443.6,130.5z"/>
				</g>
			</g>
			<g>
				<defs>
					<path id="SVGID_56_" d="M446.8,108.8c3.3,1.1,10-0.4,12.5-1.2c10.3-3.1,19.9-7.6,29.1-8.4c185.3-17.9,130.1,230.9-36.9,201.9
						C295.7,300.3,304.2,61.4,446.8,108.8z"/>
				</defs>
				<clipPath id="SVGID_57_">
					<use xlink:href="#SVGID_56_"  overflow="visible"/>
				</clipPath>
				<g id="path4188" clip-path="url(#SVGID_57_)" filter="url(#filter3490)">
					
						<radialGradient id="SVGID_58_" cx="626.4556" cy="392.5761" r="22.684" gradientTransform="matrix(11.9136 3.4421 3.3472 -10.1136 -8451.9619 1956.5021)" gradientUnits="userSpaceOnUse">
						<stop  offset="0" style="stop-color:#FDEEEB"/>
						<stop  offset="0.8987" style="stop-color:#F4F2F2;stop-opacity:0"/>
						<stop  offset="0.9473" style="stop-color:#F4F3F3;stop-opacity:0.2343"/>
						<stop  offset="1" style="stop-color:#F3D7C9"/>
					</radialGradient>
					<path fill="url(#SVGID_58_)" d="M603,176.4c1,26.5-3,66.6-53.3,105.3c4.7-29.3,14.1-53.9,23.4-85
						C576.1,186.6,597.9,124.5,603,176.4L603,176.4z"/>
				</g>
			</g>
			<g>
				<defs>
					<path id="SVGID_59_" d="M446.8,108.8c3.3,1.1,10-0.4,12.5-1.2c10.3-3.1,19.9-7.6,29.1-8.4c185.3-17.9,130.1,230.9-36.9,201.9
						C295.7,300.3,304.2,61.4,446.8,108.8z"/>
				</defs>
				<clipPath id="SVGID_60_">
					<use xlink:href="#SVGID_59_"  overflow="visible"/>
				</clipPath>
				<g id="path4190" clip-path="url(#SVGID_60_)" filter="url(#filter3368)">
					
						<radialGradient id="SVGID_61_" cx="659.7291" cy="389.1253" r="29.6547" gradientTransform="matrix(-2.2838 -8.2055 -9.2607 3.1685 5728.5117 4315.0913)" gradientUnits="userSpaceOnUse">
						<stop  offset="0" style="stop-color:#FDEEEB;stop-opacity:0"/>
						<stop  offset="0.9462" style="stop-color:#FDB585;stop-opacity:7.386360e-02"/>
						<stop  offset="1" style="stop-color:#FDEEEB;stop-opacity:0.92"/>
					</radialGradient>
					<path fill="url(#SVGID_61_)" d="M356.8,142.4c-49.2,58.4-5.2,126.9,37.5,146.7L356.8,142.4z"/>
				</g>
			</g>
			<g>
				<defs>
					<path id="SVGID_62_" d="M446.8,108.8c3.3,1.1,10-0.4,12.5-1.2c10.3-3.1,19.9-7.6,29.1-8.4c185.3-17.9,130.1,230.9-36.9,201.9
						C295.7,300.3,304.2,61.4,446.8,108.8z"/>
				</defs>
				<clipPath id="SVGID_63_">
					<use xlink:href="#SVGID_62_"  overflow="visible"/>
				</clipPath>
				<g id="path4192" opacity="0.7512" clip-path="url(#SVGID_63_)" filter="url(#filter3854)" enable-background="new    ">
					
						<radialGradient id="SVGID_64_" cx="44.8738" cy="796.9683" r="53.8632" gradientTransform="matrix(-1.5252 0.8841 0.5801 0.858 34.4444 -612.7327)" gradientUnits="userSpaceOnUse">
						<stop  offset="0" style="stop-color:#FCB33E"/>
						<stop  offset="0.7614" style="stop-color:#F46018"/>
						<stop  offset="1" style="stop-color:#EE5208"/>
					</radialGradient>
					<path fill="url(#SVGID_64_)" d="M446.8,108.8c-43.9-18.5-103.3,11-101.5,48.1c15.1-25.9,50.4-58.3,106.6-36
						C454.5,119.1,451.2,111.3,446.8,108.8z"/>
				</g>
			</g>
			<g>
				<defs>
					<path id="SVGID_65_" d="M446.8,108.8c3.3,1.1,10-0.4,12.5-1.2c10.3-3.1,19.9-7.6,29.1-8.4c185.3-17.9,130.1,230.9-36.9,201.9
						C295.7,300.3,304.2,61.4,446.8,108.8z"/>
				</defs>
				<clipPath id="SVGID_66_">
					<use xlink:href="#SVGID_65_"  overflow="visible"/>
				</clipPath>
				<g id="path4194" clip-path="url(#SVGID_66_)" filter="url(#filter4105)">
					
						<linearGradient id="SVGID_67_" gradientUnits="userSpaceOnUse" x1="603.2143" y1="164.8922" x2="923.4448" y2="25.6606" gradientTransform="matrix(1 0 0 -0.926 -337.2668 280.5886)">
						<stop  offset="0" style="stop-color:#FFFFFF"/>
						<stop  offset="5.433260e-02" style="stop-color:#E45219;stop-opacity:0"/>
						<stop  offset="0.2494" style="stop-color:#ED5E24;stop-opacity:0"/>
						<stop  offset="0.5092" style="stop-color:#EE5C21;stop-opacity:0"/>
						<stop  offset="0.7546" style="stop-color:#EB4F14;stop-opacity:0"/>
						<stop  offset="0.94" style="stop-color:#EA6E3A;stop-opacity:0"/>
						<stop  offset="1" style="stop-color:#F5DDD1"/>
					</linearGradient>
					<path fill="url(#SVGID_67_)" d="M342.5,154.6c-19.1,58.7,14.9,146.1,109,146.6c109.4,19,170.7-81.1,147.9-147.6
						c2.9,12.6,11.4,39.5-7.9,32.9c-4.1-1.4-11.4,18.7-21.8,18.9c-13.8,0.6-5.4-33.8-51.8-23.2c-42.3,9.7-2.3,35.9-40.9,40.1
						c-10.2-1.8-14.5-4.5-16.4-7.2c-5-7-0.8-11.8,1.2-15.6c2.4-4.3-3.1-13.2-21.9-14.5c-40.6-4.4-54.9,23.2-83.3,15
						c-1.3-0.5-2.5-1.2-3.6-2c-16.8-12.8-2.3-42.6,7.3-54.6c-10.2,6.1-18.4,27.8-19.3,31.9C338.6,175.1,343.7,155.4,342.5,154.6z"/>
				</g>
			</g>
			
				<radialGradient id="path4196_1_" cx="720.2313" cy="-60.7139" r="80.0809" gradientTransform="matrix(2.2417 2.715570e-02 1.214170e-02 -1.0022 -1141.6719 222.4819)" gradientUnits="userSpaceOnUse">
				<stop  offset="0" style="stop-color:#A21907"/>
				<stop  offset="0.7246" style="stop-color:#9C1901;stop-opacity:0.2039"/>
				<stop  offset="1" style="stop-color:#9B1A00;stop-opacity:0"/>
			</radialGradient>
			<path id="path4196" fill="url(#path4196_1_)" d="M356.9,253.3c77.5-45.8,153.9-31.4,232.3-13.9c-8.7,11.5-17.5,25.3-31.2,36.2
				c-18.6,17.1-59.2,33.5-106.2,25.3C404.6,301.9,369.8,274.3,356.9,253.3L356.9,253.3z"/>
			<g>
				<defs>
					<path id="SVGID_68_" d="M446.8,108.8c3.3,1.1,10-0.4,12.5-1.2c10.3-3.1,19.9-7.6,29.1-8.4c185.3-17.9,130.1,230.9-36.9,201.9
						C295.7,300.3,304.2,61.4,446.8,108.8z"/>
				</defs>
				<clipPath id="SVGID_69_">
					<use xlink:href="#SVGID_68_"  overflow="visible"/>
				</clipPath>
				<g id="path4198" opacity="0.7512" clip-path="url(#SVGID_69_)" filter="url(#filter3882)" enable-background="new    ">
					
						<radialGradient id="SVGID_70_" cx="276.9762" cy="430.6228" r="71.166" gradientTransform="matrix(1.4096 0.95 0.9076 -1.1547 -301.3802 348.3512)" gradientUnits="userSpaceOnUse">
						<stop  offset="0" style="stop-color:#FCB33E"/>
						<stop  offset="1" style="stop-color:#DC3501"/>
					</radialGradient>
					<path fill="url(#SVGID_70_)" d="M470.1,120.8c37.2-15.9,101.5,6.4,121.6,40.2c17.7-11.3-27.9-90.2-132.7-52.4
						C459.7,108.7,437.9,126.4,470.1,120.8z"/>
				</g>
			</g>
			<g>
				<defs>
					<path id="SVGID_71_" d="M446.8,108.8c3.3,1.1,10-0.4,12.5-1.2c10.3-3.1,19.9-7.6,29.1-8.4c185.3-17.9,130.1,230.9-36.9,201.9
						C295.7,300.3,304.2,61.4,446.8,108.8z"/>
				</defs>
				<clipPath id="SVGID_72_">
					<use xlink:href="#SVGID_71_"  overflow="visible"/>
				</clipPath>
				<g id="path4200" clip-path="url(#SVGID_72_)" filter="url(#filter7285)">
					
						<radialGradient id="SVGID_73_" cx="787.8536" cy="100.6863" r="19.8668" fx="790.9814" fy="119.4571" gradientTransform="matrix(1.1869 0 0 -0.7466 -458.6647 186.1408)" gradientUnits="userSpaceOnUse">
						<stop  offset="0" style="stop-color:#FFF1DD"/>
						<stop  offset="1" style="stop-color:#F5A550;stop-opacity:0"/>
					</radialGradient>
					<path fill="url(#SVGID_73_)" d="M464.1,121.3c3,2.7,39.7-16.8,35.5-19.6C492,96.7,447.2,105.9,464.1,121.3z"/>
				</g>
			</g>
			<g>
				<defs>
					<path id="SVGID_74_" d="M446.8,108.8c3.3,1.1,10-0.4,12.5-1.2c10.3-3.1,19.9-7.6,29.1-8.4c185.3-17.9,130.1,230.9-36.9,201.9
						C295.7,300.3,304.2,61.4,446.8,108.8z"/>
				</defs>
				<clipPath id="SVGID_75_">
					<use xlink:href="#SVGID_74_"  overflow="visible"/>
				</clipPath>
				<g id="path4202" opacity="0.8732" clip-path="url(#SVGID_75_)" filter="url(#filter4093)" enable-background="new    ">
					
						<radialGradient id="SVGID_76_" cx="822.3649" cy="39.479" r="31.6633" fx="821.0436" fy="30.6454" gradientTransform="matrix(1.6628 0.1316 5.888900e-02 -0.638 -837.1899 38.2877)" gradientUnits="userSpaceOnUse">
						<stop  offset="0" style="stop-color:#FCD2B1"/>
						<stop  offset="0.46" style="stop-color:#F9A464;stop-opacity:0.5057"/>
						<stop  offset="1" style="stop-color:#E33E02;stop-opacity:0"/>
					</radialGradient>
					<path fill="url(#SVGID_76_)" d="M503.5,115c21.8,2.2,35.9,1.2,62.1,19.6C574.8,109.2,521.4,88.3,503.5,115z"/>
				</g>
			</g>
			<g id="path4204" opacity="0.4733" filter="url(#filter3457)" enable-background="new    ">
				<path opacity="0.5942" fill="#3C5A3C" d="M469.9,121c-2.6,1-8.8,1.4-13.9,0.9s-7-1.8-4.4-2.8c2.6-1,8.8-1.4,13.9-0.9
					S472.5,120,469.9,121z"/>
			</g>
		</g>
	</g>
</g>
</svg>
